# Blender 3.6.4
# www.blender.org
mtllib desert.mtl
o Plane
v -71.175880 10.863822 71.828400
v 72.142921 11.233413 70.673210
v -71.059227 9.444116 -71.059227
v 70.630508 10.326846 -71.671455
v -59.329086 10.820163 71.804741
v -46.791000 11.238127 70.744308
v -35.157547 10.207373 70.507523
v -24.048046 8.918060 71.096367
v -12.140193 9.075403 71.127144
v -0.637266 8.547154 71.031967
v 11.433734 8.934148 70.552414
v 23.794971 9.775519 70.316002
v 36.603817 11.334215 70.294220
v 49.492836 13.011119 70.183449
v 61.437420 13.133963 70.227989
v 58.393211 10.166394 -72.193871
v 46.584835 9.323670 -72.056557
v 35.119545 8.847958 -71.463577
v 23.612740 9.262424 -71.068657
v 12.986797 11.331892 -71.344147
v -0.024933 10.063101 -70.720154
v -11.866128 10.013223 -70.747482
v -23.686411 9.444116 -71.059227
v -35.177048 9.984050 -70.709885
v -46.806786 10.310968 -70.498360
v -59.216026 9.444116 -71.059227
v -71.059227 9.444116 -59.216022
v -71.059227 9.444116 -47.372814
v -71.065674 9.479161 -35.511135
v -71.273041 10.605936 -23.073881
v -71.425079 11.432096 -10.795119
v -71.244972 11.269762 0.984005
v -71.053589 11.878551 13.191599
v -71.053085 12.364089 25.303642
v -71.092239 11.492630 36.658844
v -71.155273 10.775018 48.095791
v -71.196587 11.115749 60.121689
v 72.477142 11.795335 58.692696
v 71.841125 10.760120 47.049053
v 70.950340 9.299985 35.503834
v 70.849243 9.129729 23.702686
v 70.740311 9.565362 11.780589
v 70.382256 10.468880 -0.244856
v 70.781067 9.903821 -12.034777
v 70.274933 10.925334 -25.281128
v 69.605553 11.062701 -38.186031
v 69.792374 9.473639 -49.411037
v 70.167091 9.599064 -60.519386
v -59.174690 11.338347 59.898857
v -59.248245 10.818810 48.067757
v -59.249382 11.408062 36.614090
v -59.210762 12.264408 25.249243
v -59.210838 11.799084 13.147535
v -59.428413 11.375041 1.038458
v -59.221058 12.294416 -10.320125
v -58.722672 12.050814 -22.233490
v -59.227081 9.504214 -35.497929
v -56.975037 12.209949 -47.234699
v -59.169827 9.514868 -59.170250
v -45.607117 13.192806 57.494160
v -46.799770 10.998107 46.805508
v -47.570137 9.809747 35.900349
v -45.794743 12.966084 26.620640
v -47.468971 10.242521 12.374605
v -46.041245 11.976903 -0.590721
v -47.510632 10.193008 -11.448386
v -46.178104 11.738638 -23.382053
v -47.372814 9.444116 -35.529613
v -47.223320 9.673057 -47.224693
v -46.088436 11.411070 -57.943378
v -34.200912 11.797318 57.362488
v -35.397278 9.790667 46.677841
v -34.652645 10.998059 35.410942
v -35.121838 10.212073 23.660431
v -35.934868 8.837624 11.874765
v -35.742477 9.125404 0.016501
v -35.558468 9.404102 -11.840654
v -33.721012 12.414691 -24.994019
v -35.456898 9.563539 -35.582184
v -35.471691 9.532816 -47.315430
v -34.626617 10.827007 -58.321278
v -23.608297 9.699692 59.210999
v -23.952646 9.169429 47.466721
v -24.322355 8.574571 36.286346
v -24.135086 8.872006 23.768761
v -22.491375 11.582416 12.589801
v -24.040964 8.941273 0.030272
v -22.940767 10.715981 -11.885565
v -23.713646 9.403336 -23.684301
v -22.299685 11.736715 -35.676960
v -23.277338 10.119037 -47.495060
v -21.335062 13.113013 -59.326344
v -11.285145 10.564975 59.341415
v -12.127666 9.116058 46.492348
v -11.180644 10.423882 37.774021
v -13.389574 7.104018 23.807299
v -13.100994 7.560956 11.940730
v -12.700808 8.160118 0.066494
v -12.285020 8.782635 -11.808950
v -11.962336 9.265758 -23.677174
v -10.549987 11.582134 -35.667023
v -11.849684 9.604918 -47.284733
v -12.012224 11.076635 -58.077473
v 0.236735 10.051206 58.861038
v -1.834236 6.641663 42.324539
v -1.672258 6.417314 35.594677
v -1.997563 6.102345 23.855238
v -1.316824 7.504731 13.135271
v -0.505010 8.849916 2.713619
v -0.614695 8.523916 -11.793842
v 0.533740 10.415078 -21.259212
v -0.006434 9.434487 -35.529118
v -0.007502 9.630306 -47.270824
v -0.078142 11.384358 -58.153191
v 11.796934 9.544495 58.055164
v 11.554332 8.720861 46.284882
v 13.062877 9.208026 33.889965
v 9.641634 5.939639 23.879015
v 10.724989 7.785116 14.621705
v 11.752749 9.606110 4.920157
v 11.477389 8.970100 -10.711198
v 11.879178 11.132469 -20.465664
v 11.818209 9.416157 -35.551430
v 12.682312 10.819783 -48.736301
v 13.628862 12.370826 -59.668068
v 24.498459 11.003887 57.629917
v 23.553312 9.270451 46.111439
v 22.082554 6.666174 35.250587
v 21.664141 6.189166 23.854187
v 22.068794 7.019298 11.968748
v 22.549549 7.742009 0.088149
v 23.052799 8.495486 -11.794097
v 23.292191 8.991118 -24.032839
v 23.382320 9.266306 -36.791348
v 24.890049 11.225111 -51.941875
v 23.435230 9.105881 -59.702145
v 37.309582 12.553991 57.819408
v 36.128712 10.656268 46.360577
v 34.256836 7.585308 35.430317
v 33.920952 7.035630 23.811142
v 34.633156 8.162888 11.764789
v 35.186695 9.012179 -0.171173
v 34.952461 8.678402 -12.042724
v 34.771660 8.715190 -24.974596
v 34.188705 7.986523 -37.689857
v 35.125828 9.559182 -49.594082
v 34.624161 8.378342 -60.684849
v 49.998192 13.887116 58.062199
v 48.720387 11.819783 46.607327
v 48.856358 12.070891 35.529140
v 47.924835 10.529282 23.923794
v 48.567398 11.543262 11.016079
v 49.026169 11.288933 -1.061506
v 47.385262 9.768223 -12.771950
v 47.295746 12.230347 -27.696205
v 45.249813 9.450404 -39.428135
v 46.920696 11.906415 -51.196861
v 47.241608 10.893233 -61.342258
v 61.951817 14.008466 58.155972
v 60.848442 12.216092 46.652534
v 61.305527 12.992827 35.584171
v 60.536705 11.721146 23.908623
v 58.547272 9.124414 11.790746
v 58.301640 10.302610 -0.269509
v 58.703243 10.100051 -12.535645
v 58.082920 12.239123 -27.150604
v 56.621101 11.451934 -40.103394
v 57.310093 9.981404 -50.963734
v 57.623001 9.072306 -61.544655
vn 0.0469 0.9988 -0.0147
vn -0.0144 0.9997 0.0212
vn -0.0327 0.9961 0.0814
vn 0.0040 0.9995 0.0318
vn -0.0551 0.9971 -0.0526
vn -0.0526 0.9974 -0.0502
vn -0.0530 0.9983 -0.0233
vn -0.0030 1.0000 -0.0030
vn 0.0026 1.0000 -0.0026
vn -0.0369 0.9974 -0.0613
vn -0.0309 0.9994 0.0178
vn -0.0201 0.9917 -0.1266
vn 0.0116 0.9999 -0.0116
vn -0.0080 0.9828 -0.1847
vn 0.0418 0.9989 0.0231
vn 0.0338 0.9887 -0.1461
vn -0.0461 0.9985 0.0307
vn -0.0537 0.9941 -0.0943
vn 0.0599 0.9981 -0.0119
vn 0.0777 0.9945 -0.0699
vn 0.1398 0.9885 -0.0571
vn 0.1522 0.9883 -0.0058
vn -0.0370 0.9966 -0.0737
vn -0.0420 0.9990 -0.0123
vn -0.0226 0.9977 -0.0647
vn -0.0432 0.9984 -0.0363
vn -0.0655 0.9950 0.0754
vn 0.0877 0.9938 0.0688
vn 0.0864 0.9954 -0.0408
vn -0.0588 0.9973 -0.0432
vn 0.0821 0.9940 -0.0718
vn -0.0941 0.9907 -0.0979
vn 0.1071 0.9933 -0.0435
vn -0.1487 0.9869 -0.0631
vn 0.0906 0.9919 -0.0886
vn -0.1403 0.9891 -0.0440
vn 0.0712 0.9974 -0.0094
vn -0.0509 0.9986 0.0148
vn 0.0489 0.9988 0.0063
vn -0.0263 0.9994 -0.0238
vn 0.0178 0.9990 0.0403
vn -0.0763 0.9967 0.0284
vn 0.0064 0.9996 0.0270
vn -0.1255 0.9921 -0.0093
vn 0.0049 0.9979 -0.0647
vn -0.1231 0.9924 -0.0044
vn 0.0582 0.9969 -0.0537
vn -0.0425 0.9991 -0.0065
vn -0.1188 0.9893 0.0843
vn -0.1110 0.9932 -0.0351
vn -0.1274 0.9790 -0.1589
vn -0.1551 0.9805 -0.1206
vn -0.1618 0.9868 0.0089
vn -0.1538 0.9864 0.0573
vn -0.1227 0.9924 0.0068
vn -0.0882 0.9960 0.0142
vn -0.0805 0.9968 -0.0006
vn -0.0394 0.9986 0.0357
vn -0.0287 0.9994 0.0199
vn -0.1043 0.9914 0.0786
vn -0.1023 0.9944 -0.0249
vn -0.0488 0.9877 -0.1486
vn 0.0168 0.9907 -0.1352
vn 0.0029 1.0000 -0.0077
vn 0.0112 0.9950 0.0992
vn 0.0239 0.9987 0.0447
vn 0.0468 0.9979 0.0438
vn 0.0714 0.9974 0.0105
vn 0.0705 0.9964 0.0480
vn 0.1028 0.9946 -0.0102
vn -0.0380 0.9962 0.0777
vn -0.0533 0.9983 -0.0253
vn -0.0498 0.9946 -0.0905
vn 0.0019 0.9933 -0.1155
vn -0.0042 0.9999 -0.0093
vn 0.0231 0.9897 0.1412
vn 0.0456 0.9961 0.0755
vn 0.0315 0.9970 0.0706
vn 0.0364 0.9977 0.0566
vn 0.0080 0.9999 0.0063
vn -0.0004 0.9964 0.0850
vn 0.0300 0.9937 0.1079
vn 0.0261 0.9993 -0.0254
vn 0.0701 0.9969 -0.0344
vn 0.0614 0.9962 -0.0613
vn 0.0360 0.9992 -0.0158
vn -0.0196 0.9927 0.1191
vn -0.0429 0.9977 0.0518
vn -0.0442 0.9963 0.0737
vn -0.0285 0.9973 0.0672
vn 0.0156 0.9998 -0.0134
vn -0.0064 0.9977 0.0676
vn 0.0006 0.9940 0.1095
vn 0.0190 0.9998 -0.0059
vn 0.0612 0.9971 -0.0461
vn 0.1358 0.9904 -0.0258
vn 0.1327 0.9911 -0.0072
vn 0.1255 0.9905 0.0554
vn 0.0719 0.9971 0.0268
vn 0.0367 0.9982 0.0466
vn 0.0251 0.9964 0.0805
vn 0.0454 0.9990 0.0008
vn 0.0532 0.9982 0.0261
vn 0.0504 0.9939 0.0976
vn 0.0488 0.9988 0.0048
vn 0.0413 0.9984 -0.0375
vn 0.0633 0.9978 -0.0202
vn 0.0950 0.9953 0.0171
vn 0.0996 0.9949 0.0124
vn 0.0423 0.9991 0.0020
vn 0.0623 0.9965 0.0554
vn 0.0543 0.9973 0.0505
vn -0.0061 0.9999 -0.0100
vn -0.0260 0.9988 0.0411
vn 0.1237 0.9848 0.1216
vn 0.1250 0.9918 -0.0265
vn 0.0941 0.9929 -0.0734
vn 0.1018 0.9943 0.0309
vn 0.0901 0.9958 -0.0142
vn 0.0511 0.9983 -0.0294
vn 0.0525 0.9986 0.0037
vn 0.0494 0.9964 0.0695
vn 0.0211 0.9998 -0.0044
vn -0.0318 0.9964 -0.0791
vn -0.0427 0.9971 0.0636
vn 0.0084 0.9932 0.1157
vn 0.0177 0.9995 -0.0269
vn 0.0169 0.9963 -0.0845
vn 0.0410 0.9965 0.0734
vn 0.0774 0.9968 0.0183
vn 0.1033 0.9940 -0.0362
vn 0.1171 0.9931 0.0042
vn 0.0865 0.9958 0.0310
vn 0.0187 0.9992 -0.0343
vn 0.0210 0.9977 -0.0647
vn 0.0459 0.9973 0.0579
vn -0.0394 0.9973 0.0620
vn -0.0465 0.9989 -0.0004
vn -0.0140 0.9994 -0.0318
vn 0.0244 0.9971 0.0727
vn 0.0208 0.9995 0.0220
vn 0.0216 0.9990 -0.0392
vn 0.0133 0.9999 0.0059
vn 0.0055 1.0000 0.0032
vn -0.0058 0.9973 -0.0733
vn -0.0166 0.9996 -0.0240
vn -0.0063 0.9996 0.0259
vn -0.0072 0.9994 0.0326
vn -0.0093 1.0000 -0.0013
vn -0.0048 0.9999 0.0103
vn 0.0050 0.9978 0.0664
vn 0.0077 0.9998 0.0186
vn 0.0032 0.9992 -0.0408
vn -0.0214 0.9998 0.0027
vn -0.0665 0.9978 -0.0012
vn -0.0719 0.9928 -0.0955
vn -0.0814 0.9965 -0.0202
vn -0.1077 0.9942 -0.0009
vn 0.1869 0.9802 0.0651
vn 0.1807 0.9831 -0.0299
vn 0.2057 0.9748 -0.0859
vn 0.2706 0.9613 -0.0517
vn 0.1968 0.9768 -0.0839
vn 0.0352 0.9994 -0.0063
vn -0.0115 0.9996 0.0275
vn 0.0258 0.9990 0.0374
vn 0.0603 0.9970 0.0489
vn 0.0637 0.9949 -0.0779
vn 0.0297 0.9956 -0.0886
vt 0.916667 0.916667
vt 1.000000 0.916667
vt 1.000000 1.000000
vt 0.916667 1.000000
vt 0.000000 0.916667
vt 0.083333 0.916667
vt 0.083333 1.000000
vt 0.000000 1.000000
vt 0.166667 0.916667
vt 0.166667 1.000000
vt 0.250000 0.916667
vt 0.250000 1.000000
vt 0.333333 0.916667
vt 0.333333 1.000000
vt 0.416667 0.916667
vt 0.416667 1.000000
vt 0.500000 0.916667
vt 0.500000 1.000000
vt 0.583333 0.916667
vt 0.583333 1.000000
vt 0.666667 0.916667
vt 0.666667 1.000000
vt 0.750000 0.916667
vt 0.750000 1.000000
vt 0.833333 0.916667
vt 0.833333 1.000000
vt 0.833333 0.000000
vt 0.916667 0.000000
vt 0.916667 0.083333
vt 0.833333 0.083333
vt 0.916667 0.166667
vt 0.833333 0.166667
vt 0.916667 0.250000
vt 0.833333 0.250000
vt 0.916667 0.333333
vt 0.833333 0.333333
vt 0.916667 0.416667
vt 0.833333 0.416667
vt 0.916667 0.500000
vt 0.833333 0.500000
vt 0.916667 0.583333
vt 0.833333 0.583333
vt 0.916667 0.666667
vt 0.833333 0.666667
vt 0.916667 0.750000
vt 0.833333 0.750000
vt 0.916667 0.833333
vt 0.833333 0.833333
vt 0.750000 0.000000
vt 0.750000 0.083333
vt 0.750000 0.166667
vt 0.750000 0.250000
vt 0.750000 0.333333
vt 0.750000 0.416667
vt 0.750000 0.500000
vt 0.750000 0.583333
vt 0.750000 0.666667
vt 0.750000 0.750000
vt 0.750000 0.833333
vt 0.666667 0.000000
vt 0.666667 0.083333
vt 0.666667 0.166667
vt 0.666667 0.250000
vt 0.666667 0.333333
vt 0.666667 0.416667
vt 0.666667 0.500000
vt 0.666667 0.583333
vt 0.666667 0.666667
vt 0.666667 0.750000
vt 0.666667 0.833333
vt 0.583333 0.000000
vt 0.583333 0.083333
vt 0.583333 0.166667
vt 0.583333 0.250000
vt 0.583333 0.333333
vt 0.583333 0.416667
vt 0.583333 0.500000
vt 0.583333 0.583333
vt 0.583333 0.666667
vt 0.583333 0.750000
vt 0.583333 0.833333
vt 0.500000 0.000000
vt 0.500000 0.083333
vt 0.500000 0.166667
vt 0.500000 0.250000
vt 0.500000 0.333333
vt 0.500000 0.416667
vt 0.500000 0.500000
vt 0.500000 0.583333
vt 0.500000 0.666667
vt 0.500000 0.750000
vt 0.500000 0.833333
vt 0.416667 0.000000
vt 0.416667 0.083333
vt 0.416667 0.166667
vt 0.416667 0.250000
vt 0.416667 0.333333
vt 0.416667 0.416667
vt 0.416667 0.500000
vt 0.416667 0.583333
vt 0.416667 0.666667
vt 0.416667 0.750000
vt 0.416667 0.833333
vt 0.333333 0.000000
vt 0.333333 0.083333
vt 0.333333 0.166667
vt 0.333333 0.250000
vt 0.333333 0.333333
vt 0.333333 0.416667
vt 0.333333 0.500000
vt 0.333333 0.583333
vt 0.333333 0.666667
vt 0.333333 0.750000
vt 0.333333 0.833333
vt 0.250000 0.000000
vt 0.250000 0.083333
vt 0.250000 0.166667
vt 0.250000 0.250000
vt 0.250000 0.333333
vt 0.250000 0.416667
vt 0.250000 0.500000
vt 0.250000 0.583333
vt 0.250000 0.666667
vt 0.250000 0.750000
vt 0.250000 0.833333
vt 0.166667 0.000000
vt 0.166667 0.083333
vt 0.166667 0.166667
vt 0.166667 0.250000
vt 0.166667 0.333333
vt 0.166667 0.416667
vt 0.166667 0.500000
vt 0.166667 0.583333
vt 0.166667 0.666667
vt 0.166667 0.750000
vt 0.166667 0.833333
vt 0.083333 0.000000
vt 0.083333 0.083333
vt 0.083333 0.166667
vt 0.083333 0.250000
vt 0.083333 0.333333
vt 0.083333 0.416667
vt 0.083333 0.500000
vt 0.083333 0.583333
vt 0.083333 0.666667
vt 0.083333 0.750000
vt 0.083333 0.833333
vt 0.000000 0.000000
vt 0.000000 0.083333
vt 0.000000 0.166667
vt 0.000000 0.250000
vt 0.000000 0.333333
vt 0.000000 0.416667
vt 0.000000 0.500000
vt 0.000000 0.583333
vt 0.000000 0.666667
vt 0.000000 0.750000
vt 0.000000 0.833333
vt 1.000000 0.000000
vt 1.000000 0.083333
vt 1.000000 0.166667
vt 1.000000 0.250000
vt 1.000000 0.333333
vt 1.000000 0.416667
vt 1.000000 0.500000
vt 1.000000 0.583333
vt 1.000000 0.666667
vt 1.000000 0.750000
vt 1.000000 0.833333
s 1
usemtl Material.001
f 169/1/1 48/2/2 4/3/3 16/4/4
f 27/5/5 59/6/6 26/7/7 3/8/8
f 59/6/6 70/9/9 25/10/10 26/7/7
f 70/9/9 81/11/11 24/12/12 25/10/10
f 81/11/11 92/13/13 23/14/14 24/12/12
f 92/13/13 103/15/15 22/16/16 23/14/14
f 103/15/15 114/17/17 21/18/18 22/16/16
f 114/17/17 125/19/19 20/20/20 21/18/18
f 125/19/19 136/21/21 19/22/22 20/20/20
f 136/21/21 147/23/23 18/24/24 19/22/22
f 147/23/23 158/25/25 17/26/26 18/24/24
f 158/25/25 169/1/1 16/4/4 17/26/26
f 14/27/27 15/28/28 159/29/29 148/30/30
f 148/30/30 159/29/29 160/31/31 149/32/32
f 149/32/32 160/31/31 161/33/33 150/34/34
f 150/34/34 161/33/33 162/35/35 151/36/36
f 151/36/36 162/35/35 163/37/37 152/38/38
f 152/38/38 163/37/37 164/39/39 153/40/40
f 153/40/40 164/39/39 165/41/41 154/42/42
f 154/42/42 165/41/41 166/43/43 155/44/44
f 155/44/44 166/43/43 167/45/45 156/46/46
f 156/46/46 167/45/45 168/47/47 157/48/48
f 157/48/48 168/47/47 169/1/1 158/25/25
f 13/49/49 14/27/27 148/30/30 137/50/50
f 137/50/50 148/30/30 149/32/32 138/51/51
f 138/51/51 149/32/32 150/34/34 139/52/52
f 139/52/52 150/34/34 151/36/36 140/53/53
f 140/53/53 151/36/36 152/38/38 141/54/54
f 141/54/54 152/38/38 153/40/40 142/55/55
f 142/55/55 153/40/40 154/42/42 143/56/56
f 143/56/56 154/42/42 155/44/44 144/57/57
f 144/57/57 155/44/44 156/46/46 145/58/58
f 145/58/58 156/46/46 157/48/48 146/59/59
f 146/59/59 157/48/48 158/25/25 147/23/23
f 12/60/60 13/49/49 137/50/50 126/61/61
f 126/61/61 137/50/50 138/51/51 127/62/62
f 127/62/62 138/51/51 139/52/52 128/63/63
f 128/63/63 139/52/52 140/53/53 129/64/64
f 129/64/64 140/53/53 141/54/54 130/65/65
f 130/65/65 141/54/54 142/55/55 131/66/66
f 131/66/66 142/55/55 143/56/56 132/67/67
f 132/67/67 143/56/56 144/57/57 133/68/68
f 133/68/68 144/57/57 145/58/58 134/69/69
f 134/69/69 145/58/58 146/59/59 135/70/70
f 135/70/70 146/59/59 147/23/23 136/21/21
f 11/71/71 12/60/60 126/61/61 115/72/72
f 115/72/72 126/61/61 127/62/62 116/73/73
f 116/73/73 127/62/62 128/63/63 117/74/74
f 117/74/74 128/63/63 129/64/64 118/75/75
f 118/75/75 129/64/64 130/65/65 119/76/76
f 119/76/76 130/65/65 131/66/66 120/77/77
f 120/77/77 131/66/66 132/67/67 121/78/78
f 121/78/78 132/67/67 133/68/68 122/79/79
f 122/79/79 133/68/68 134/69/69 123/80/80
f 123/80/80 134/69/69 135/70/70 124/81/81
f 124/81/81 135/70/70 136/21/21 125/19/19
f 10/82/82 11/71/71 115/72/72 104/83/83
f 104/83/83 115/72/72 116/73/73 105/84/84
f 105/84/84 116/73/73 117/74/74 106/85/85
f 106/85/85 117/74/74 118/75/75 107/86/86
f 107/86/86 118/75/75 119/76/76 108/87/87
f 108/87/87 119/76/76 120/77/77 109/88/88
f 109/88/88 120/77/77 121/78/78 110/89/89
f 110/89/89 121/78/78 122/79/79 111/90/90
f 111/90/90 122/79/79 123/80/80 112/91/91
f 112/91/91 123/80/80 124/81/81 113/92/92
f 113/92/92 124/81/81 125/19/19 114/17/17
f 9/93/93 10/82/82 104/83/83 93/94/94
f 93/94/94 104/83/83 105/84/84 94/95/95
f 94/95/95 105/84/84 106/85/85 95/96/96
f 95/96/96 106/85/85 107/86/86 96/97/97
f 96/97/97 107/86/86 108/87/87 97/98/98
f 97/98/98 108/87/87 109/88/88 98/99/99
f 98/99/99 109/88/88 110/89/89 99/100/100
f 99/100/100 110/89/89 111/90/90 100/101/101
f 100/101/101 111/90/90 112/91/91 101/102/102
f 101/102/102 112/91/91 113/92/92 102/103/103
f 102/103/103 113/92/92 114/17/17 103/15/15
f 8/104/104 9/93/93 93/94/94 82/105/105
f 82/105/105 93/94/94 94/95/95 83/106/106
f 83/106/106 94/95/95 95/96/96 84/107/107
f 84/107/107 95/96/96 96/97/97 85/108/108
f 85/108/108 96/97/97 97/98/98 86/109/109
f 86/109/109 97/98/98 98/99/99 87/110/110
f 87/110/110 98/99/99 99/100/100 88/111/111
f 88/111/111 99/100/100 100/101/101 89/112/112
f 89/112/112 100/101/101 101/102/102 90/113/113
f 90/113/113 101/102/102 102/103/103 91/114/114
f 91/114/114 102/103/103 103/15/15 92/13/13
f 7/115/115 8/104/104 82/105/105 71/116/116
f 71/116/116 82/105/105 83/106/106 72/117/117
f 72/117/117 83/106/106 84/107/107 73/118/118
f 73/118/118 84/107/107 85/108/108 74/119/119
f 74/119/119 85/108/108 86/109/109 75/120/120
f 75/120/120 86/109/109 87/110/110 76/121/121
f 76/121/121 87/110/110 88/111/111 77/122/122
f 77/122/122 88/111/111 89/112/112 78/123/123
f 78/123/123 89/112/112 90/113/113 79/124/124
f 79/124/124 90/113/113 91/114/114 80/125/125
f 80/125/125 91/114/114 92/13/13 81/11/11
f 6/126/126 7/115/115 71/116/116 60/127/127
f 60/127/127 71/116/116 72/117/117 61/128/128
f 61/128/128 72/117/117 73/118/118 62/129/129
f 62/129/129 73/118/118 74/119/119 63/130/130
f 63/130/130 74/119/119 75/120/120 64/131/131
f 64/131/131 75/120/120 76/121/121 65/132/132
f 65/132/132 76/121/121 77/122/122 66/133/133
f 66/133/133 77/122/122 78/123/123 67/134/134
f 67/134/134 78/123/123 79/124/124 68/135/135
f 68/135/135 79/124/124 80/125/125 69/136/136
f 69/136/136 80/125/125 81/11/11 70/9/9
f 5/137/137 6/126/126 60/127/127 49/138/138
f 49/138/138 60/127/127 61/128/128 50/139/139
f 50/139/139 61/128/128 62/129/129 51/140/140
f 51/140/140 62/129/129 63/130/130 52/141/141
f 52/141/141 63/130/130 64/131/131 53/142/142
f 53/142/142 64/131/131 65/132/132 54/143/143
f 54/143/143 65/132/132 66/133/133 55/144/144
f 55/144/144 66/133/133 67/134/134 56/145/145
f 56/145/145 67/134/134 68/135/135 57/146/146
f 57/146/146 68/135/135 69/136/136 58/147/147
f 58/147/147 69/136/136 70/9/9 59/6/6
f 1/148/148 5/137/137 49/138/138 37/149/149
f 37/149/149 49/138/138 50/139/139 36/150/150
f 36/150/150 50/139/139 51/140/140 35/151/151
f 35/151/151 51/140/140 52/141/141 34/152/152
f 34/152/152 52/141/141 53/142/142 33/153/153
f 33/153/153 53/142/142 54/143/143 32/154/154
f 32/154/154 54/143/143 55/144/144 31/155/155
f 31/155/155 55/144/144 56/145/145 30/156/156
f 30/156/156 56/145/145 57/146/146 29/157/157
f 29/157/157 57/146/146 58/147/147 28/158/158
f 28/158/158 58/147/147 59/6/6 27/5/5
f 15/28/28 2/159/159 38/160/160 159/29/29
f 159/29/29 38/160/160 39/161/161 160/31/31
f 160/31/31 39/161/161 40/162/162 161/33/33
f 161/33/33 40/162/162 41/163/163 162/35/35
f 162/35/35 41/163/163 42/164/164 163/37/37
f 163/37/37 42/164/164 43/165/165 164/39/39
f 164/39/39 43/165/165 44/166/166 165/41/41
f 165/41/41 44/166/166 45/167/167 166/43/43
f 166/43/43 45/167/167 46/168/168 167/45/45
f 167/45/45 46/168/168 47/169/169 168/47/47
f 168/47/47 47/169/169 48/2/2 169/1/1
